<?xml version="1.0" encoding="UTF-8"?>
<svg id="Layer_2" data-name="Layer 2" xmlns="http://www.w3.org/2000/svg" viewBox="0 0 86.21 57.8">
  <defs>
    <style>
      .cls-1 {
        fill: #010101;
      }
    </style>
  </defs>
  <g id="Layer_39" data-name="Layer 39">
    <path class="cls-1" d="m85.89.32c-.2-.2-.48-.32-.77-.32h-4.02c-.29,0-.56.12-.77.32-.2.2-.32.48-.32.77v1.94c0,.6-.49,1.08-1.09,1.08h-7.31c-.6,0-1.08-.49-1.08-1.08v-1.94c0-.29-.11-.56-.32-.77-.2-.21-.48-.32-.77-.32h-4.02c-.29,0-.56.12-.77.32-.2.2-.32.48-.32.77v6.54H21.86V1.09c0-.29-.11-.56-.32-.77-.2-.21-.47-.32-.77-.32h-4.02c-.29,0-.56.12-.77.32-.2.2-.32.48-.32.77v1.94c0,.6-.49,1.08-1.09,1.08h-7.32c-.6,0-1.08-.49-1.08-1.08v-1.94c0-.29-.11-.56-.32-.77-.21-.21-.48-.32-.77-.32H1.09c-.29,0-.56.12-.77.32-.2.2-.32.48-.32.77v55.63c0,.29.11.57.32.77.2.2.48.32.77.32h4.02c.29,0,.56-.11.77-.32.2-.21.32-.48.32-.77v-1.94c0-.6.48-1.08,1.08-1.08h7.32c.6,0,1.08.49,1.09,1.08v1.94c0,.29.11.57.32.77.21.2.48.32.77.32h4.02c.29,0,.56-.11.77-.32.21-.21.32-.48.32-.77v-6.68h42.5v6.68c0,.29.11.57.32.77.2.2.48.32.77.32h4.02c.29,0,.56-.11.77-.32.21-.21.32-.48.32-.77v-1.94c0-.6.49-1.08,1.08-1.08h7.31c.6,0,1.08.49,1.09,1.08v1.94c0,.29.11.57.32.77.2.2.48.32.77.32h4.02c.29,0,.56-.11.77-.32.21-.2.32-.48.32-.77V1.09c0-.29-.12-.57-.32-.77Zm-14.27,24.79h7.31c.6,0,1.08.49,1.09,1.08v5.42c0,.6-.49,1.08-1.09,1.08h-7.31c-.6,0-1.08-.49-1.08-1.08v-5.42c0-.6.49-1.08,1.08-1.08Zm8.4-7.79c0,.6-.49,1.08-1.09,1.08h-7.31c-.6,0-1.08-.49-1.08-1.08v-5.42c0-.6.49-1.08,1.08-1.08h7.31c.6,0,1.08.49,1.09,1.08v5.42Zm-9.48,23.17c0-.6.49-1.08,1.08-1.08h7.31c.6,0,1.08.49,1.09,1.08v5.42c0,.6-.49,1.08-1.09,1.08h-7.31c-.6,0-1.08-.49-1.08-1.08v-5.42Zm-6.19-27.16v31.02H21.86s0-31.02,0-31.02h42.5ZM6.19,40.49c0-.6.48-1.08,1.08-1.08h7.32c.6,0,1.08.49,1.09,1.08v5.42c0,.6-.49,1.08-1.09,1.08h-7.32c-.6,0-1.08-.49-1.08-1.08v-5.42Zm1.08-15.38h7.32c.6,0,1.08.49,1.09,1.08v5.42c0,.6-.49,1.08-1.09,1.08h-7.32c-.6,0-1.08-.49-1.08-1.08v-5.42c0-.6.48-1.08,1.08-1.08Zm8.4-7.79c0,.6-.49,1.08-1.09,1.08h-7.32c-.6,0-1.08-.49-1.08-1.08v-5.42c0-.6.48-1.08,1.08-1.08h7.32c.6,0,1.08.49,1.09,1.08v5.42Z"/>
  </g>
</svg>