<?xml version="1.0" encoding="UTF-8"?>
<svg id="Layer_2" data-name="Layer 2" xmlns="http://www.w3.org/2000/svg" viewBox="0 0 86.46 70.79">
  <defs>
    <style>
      .cls-1 {
        fill: #010101;
      }
    </style>
  </defs>
  <g id="Layer_20" data-name="Layer 20">
    <g>
      <path class="cls-1" d="m85.1,50.52c-1.17-5.97-2.8-12.51-5.07-16.06-4.7-6.07-10.75-3.29-12.67-1.98-.86.58-2.7,1.88-4.47,3.13h-13.86c-1.71-1.21-3.45-2.44-4.28-3-1.92-1.3-7.97-4.09-12.67,1.98-2.27,3.55-3.9,10.09-5.07,16.06-1.18,6.05-2.79,15.84,1.04,18.55,3.49,2.47,8.32,2.52,12-3.11,1.57-2.41,3.8-5.9,5.82-9.11h20.44c2,3.17,4.19,6.6,5.74,8.98,3.68,5.63,8.52,5.58,12,3.11,3.83-2.71,2.22-12.5,1.04-18.55Z"/>
      <path class="cls-1" d="m16.33,0C7.31,0,0,7.31,0,16.33s7.31,16.33,16.33,16.33,16.33-7.31,16.33-16.33S25.35,0,16.33,0Zm4.57,19.6c-.77,0-1.69-.78-2.37-.66l-8.79,8.79c-.26.25-.67.25-.92,0l-3.23-3.23c-.25-.25-.25-.67,0-.92l8.5-8.5c.12-.77-.36-2.04-.36-2.67,0-3.97,3.22-7.19,7.19-7.19.92,0,2.45.22,2.61.49.16.27-4.82,5.47-4.79,5.82.03.35,3.02,3.27,3.4,3.27.38,0,5.23-5.17,5.47-5.01.24.16.49,1.69.49,2.61,0,3.97-3.22,7.19-7.19,7.19Z"/>
    </g>
  </g>
</svg>