<?xml version="1.0" encoding="UTF-8"?>
<svg id="Layer_2" data-name="Layer 2" xmlns="http://www.w3.org/2000/svg" viewBox="0 0 99.52 63.18">
  <defs>
    <style>
      .cls-1 {
        fill: #010101;
      }
    </style>
  </defs>
  <g id="Layer_76" data-name="Layer 76">
    <g>
      <path class="cls-1" d="m16.33,0C7.31,0,0,7.31,0,16.33s7.31,16.33,16.33,16.33,16.33-7.31,16.33-16.33S25.35,0,16.33,0Zm4.57,19.6c-.77,0-1.69-.78-2.37-.65l-8.79,8.79c-.26.26-.67.26-.92,0l-3.23-3.23c-.25-.25-.25-.67,0-.92l8.5-8.5c.12-.77-.36-2.04-.36-2.67,0-3.97,3.22-7.19,7.19-7.19.92,0,2.45.22,2.61.49.16.27-4.82,5.47-4.79,5.83.03.35,3.02,3.27,3.4,3.27s5.23-5.17,5.47-5.01c.24.16.49,1.69.49,2.62,0,3.97-3.22,7.19-7.19,7.19Z"/>
      <path class="cls-1" d="m98.63,21.8H19.1c-.49,0-.89.4-.89.89v39.6c0,.49.4.89.89.89h79.52c.49,0,.89-.4.89-.89V22.69c0-.49-.4-.89-.89-.89Zm-4.81,16.73c0,.29-.1.53-.39.53-.83,0-7.69-3.04-16.82-1.7-18.2,2.67-25.07,14.2-39.8,14.2-9.25,0-12.37-1.54-12.37-1.54-.29,0-.53-.24-.53-.53v-21.46c0-.29.24-.53.53-.53h68.85c.29,0,.53.24.53.53v10.51Z"/>
    </g>
  </g>
</svg>