<?xml version="1.0" encoding="UTF-8"?>
<svg id="Layer_2" data-name="Layer 2" xmlns="http://www.w3.org/2000/svg" viewBox="0 0 75.57 69.63">
  <defs>
    <style>
      .cls-1 {
        fill: #010101;
      }
    </style>
  </defs>
  <g id="Layer_8" data-name="Layer 8">
    <g>
      <path class="cls-1" d="m49.77,25.17c-.36-.16-.77-.1-1.06.16l-13.44,11.99h-10.17c-.36,0-.66.3-.66.66v18.75c0,.37.29.66.66.66h10.17l13.44,11.99c.18.17.42.25.66.25.14,0,.27-.03.4-.09.35-.16.58-.51.58-.9V26.07c0-.39-.23-.74-.58-.9Z"/>
      <path class="cls-1" d="m16.33,0C7.31,0,0,7.31,0,16.33s7.31,16.33,16.33,16.33,16.33-7.31,16.33-16.33S25.35,0,16.33,0Zm4.57,19.6c-.77,0-1.69-.78-2.37-.65l-8.79,8.79c-.26.26-.67.26-.92,0l-3.23-3.23c-.25-.25-.25-.67,0-.92l8.5-8.5c.12-.77-.36-2.04-.36-2.67,0-3.97,3.22-7.19,7.19-7.19.92,0,2.45.22,2.61.49.16.27-4.82,5.47-4.79,5.83.03.35,3.02,3.27,3.4,3.27s5.23-5.17,5.47-5.01c.24.16.49,1.69.49,2.62,0,3.97-3.22,7.19-7.19,7.19Z"/>
      <g>
        <path class="cls-1" d="m65.19,65.56c-.98-.89-1.05-2.41-.15-3.39h0c3.57-3.92,5.74-9.1,5.74-14.81h0c0-5.73-2.19-10.93-5.77-14.85h0c-.89-.98-.83-2.5.15-3.39h0c.98-.89,2.5-.83,3.39.15h0c4.36,4.76,7.04,11.12,7.04,18.09h0c0,6.95-2.65,13.29-6.99,18.05h0c-.47.52-1.12.78-1.77.78h0c-.58,0-1.16-.21-1.62-.63h0Z"/>
        <path class="cls-1" d="m57.88,58.25c-1.01-.86-1.13-2.38-.27-3.38h0c1.73-2.03,2.77-4.64,2.77-7.51h0c0-2.89-1.05-5.5-2.8-7.54h0c-.86-1-.75-2.52.26-3.38h0c1-.86,2.52-.75,3.38.26h0c2.46,2.86,3.96,6.6,3.96,10.67h0c0,4.05-1.48,7.77-3.92,10.62h0c-.48.56-1.15.84-1.83.84h0c-.55,0-1.1-.19-1.56-.57h0Z"/>
      </g>
    </g>
  </g>
</svg>