<?xml version="1.0" encoding="UTF-8"?>
<svg id="Layer_2" data-name="Layer 2" xmlns="http://www.w3.org/2000/svg" viewBox="0 0 64.66 65.21">
  <g id="add_user_copy" data-name="add user copy">
    <path d="m55.88,0h-25.53c-4.85,0-8.77,3.93-8.77,8.77v13.36h-12.81c-4.84,0-8.77,3.93-8.77,8.77v25.52c0,4.84,3.93,8.77,8.77,8.77h25.53c4.85,0,8.77-3.93,8.77-8.77v-13.36h12.81c4.85,0,8.77-3.93,8.77-8.77V8.77c0-4.85-3.93-8.77-8.77-8.77ZM8.77,38.09c0-1.76,1.43-3.19,3.19-3.19s3.19,1.43,3.19,3.19-1.43,3.19-3.19,3.19-3.19-1.43-3.19-3.19Zm22.43,14.45c-.21.17-3.77,3.84-9.67,3.89h-.02c-2.92,0-5.2-1-6.69-2-1.5-1.01-2.27-2-2.38-2.15-.8-1.06-.58-2.56.48-3.35,1.05-.79,2.53-.58,3.33.45,0,0,.01.02.03.04.04.05.11.12.21.23.21.21.54.5.98.8.9.6,2.21,1.19,4.06,1.19,3.42.04,6.09-2.28,6.29-2.49h0s0,0,0,0h0c.93-.93,2.45-.93,3.38,0,.93.93.93,2.45,0,3.38Zm.7-11.26c-1.76,0-3.19-1.43-3.19-3.19s1.43-3.19,3.19-3.19,3.19,1.43,3.19,3.19-1.43,3.19-3.19,3.19Zm1.64-22.13c-1.76,0-3.19-1.43-3.19-3.19s1.43-3.19,3.19-3.19,3.19,1.43,3.19,3.19-1.43,3.19-3.19,3.19Zm19.24,11.26c-.21.17-3.77,3.84-9.67,3.89h-.02s-.02,0-.03,0v-3.39c0-.48-.05-.95-.12-1.41.06,0,.11.01.17.01,3.42.04,6.09-2.28,6.29-2.49h0s0,0,0,0h0c.93-.93,2.45-.93,3.38,0,.94.93.94,2.45,0,3.38Zm-.1-11.26c-1.76,0-3.19-1.43-3.19-3.19s1.43-3.19,3.19-3.19,3.19,1.43,3.19,3.19-1.43,3.19-3.19,3.19Z"/>
  </g>
</svg>