<?xml version="1.0" encoding="utf-8"?>
<!-- Generator: Adobe Illustrator 27.2.0, SVG Export Plug-In . SVG Version: 6.00 Build 0)  -->
<svg version="1.1" id="svg5" xmlns:svg="http://www.w3.org/2000/svg"
	 xmlns="http://www.w3.org/2000/svg" xmlns:xlink="http://www.w3.org/1999/xlink" x="0px" y="0px" viewBox="0 0 960 169"
	 style="enable-background:new 0 0 960 169;" xml:space="preserve">
<style type="text/css">
	.st0{fill:#0F0F0F;}
</style>
<g>
	<path class="st0" d="M875.2,9.4v18.7H888c2-0.1,3.7,1.4,3.8,3.4c0.1,0.9-0.2,1.7-0.7,2.4c-0.3,0.4-35.5,41.8-36,42.2
		c-0.4,0.4-0.7,0.3-1.1-0.1c-0.3-0.4-35.2-42.1-35.2-42.1c-2.5-3-0.5-5.8,2.3-5.8h12.5V9.4l-103.5,0v18.8h18.3c8,0,13.3,5,16.3,8.3
		c2.4,2.7,55.2,62.6,56.5,64.1c1.3,1.6,1.3,1.6,1.3,2.6v29.7c0,1.4-0.1,2.7-0.4,4c-0.8,1.7-2.2,3.1-4.1,3.6
		c-1.7,0.2-3.5,0.3-5.2,0.3l-18.4,0v18.8h102.9v-18.8h-19.4c-1.7,0-3.5-0.1-5.2-0.3c-1.8-0.5-3.3-1.9-4.1-3.6
		c-0.3-1.3-0.4-2.7-0.4-4.1v-29.6c-0.1-1,0.1-2,0.7-2.8l57.1-65.2c5.2-5.8,8-7.1,14.8-7.1H960V9.4H875.2z"/>
	<path class="st0" d="M623.7,28.2h19.4c8.9,0,10.4,3.4,10.5,11.7l1.1,62.7L551.5,9.4l-73.8,0v18.8h16.4c11.9,0,12.7,6.6,12.7,12.4
		v87.9c0,5.3,0.3,12.5-7.3,12.5h-20.3v18.8h86.6v-18.8h-21.1c-8.4,0-8.8-3.9-8.9-12.1V53.6l118.9,106.1H685l-1.6-119.8
		c0.2-8.8,0.7-11.7,9.8-11.7h18.9V9.4h-88.3V28.2z"/>
	<path class="st0" d="M167,74.7c-6-2.7-12.3-4.9-18.7-6.5c-12.2-3-39.5-6.7-52.6-8c-13.7-1.4-37.5-3.4-47-6.3
		c-2.9-0.9-8.8-3.7-8.8-10.5c0-4.9,2.7-9,8-12.3c8.4-5.3,25.4-8.6,43.2-8.6c17.2-0.2,34.2,3.1,50,9.8c4.3,1.9,8.3,4.2,11.9,7.1
		c5.9,5.1,10.1,12,11.7,19.6h19V7.5h-21.1v6c0,1.9-1.9,4.5-5.8,2.4c-9.5-5-36.3-15.7-69.1-15.8C69.2,0,48.1,3.5,30.2,11.5
		C13.6,19,0,30.9,0,50.8c0,10.4,3.9,20.4,11,28c4.8,4.5,12.6,12,32.9,16.5c9.1,1.9,28.5,5,47.8,7c19.3,2,38.1,3.8,45.8,5.9
		c6.1,1.6,16.4,3.7,16.4,15.2c0,11.5-10.8,15-12.7,15.7c-1.9,0.7-14.9,6.7-38.2,6.7c-15.4-0.4-30.7-3.1-45.4-7.8
		c-8.7-3.1-17.8-7.2-26.3-17.6c-3.4-4.9-5.3-10.7-5.5-16.7H4.7v59.1h23.5v-8c0-1.8,1.5-3.4,3.3-3.4c0.6,0,1.2,0.2,1.8,0.5
		c11.1,4.8,22.6,8.5,34.3,11.1c12.3,2.6,20.3,4.4,35.6,4.4c16.2,0.3,32.3-2,47.7-6.7c10.3-2.8,19.9-7.6,28.4-14
		c9.7-7.4,15.3-18.9,15.2-31.1c0.1-11.4-4.3-22.4-12.3-30.6C177.8,80.7,172.6,77.2,167,74.7z"/>
	<polygon class="st0" points="87.8,0 87.8,0 87.8,0 	"/>
	<path class="st0" d="M430.8,29.7C408.3,9.3,378.8,0,342,0v0c-33.3,0-68.6,11.5-88.6,29.7c-15.4,14-24.1,33.9-24.1,54.7
		c-0.2,20.9,8.5,40.9,24.1,54.9c21.5,19.3,53.8,29.7,88.6,29.7c34.9,0,67.8-10.3,88.8-29.7c15.1-14.3,23.7-34.1,23.8-54.9
		C454.8,63.6,446.1,43.7,430.8,29.7z M389.6,128.4c-12,11.9-29.1,18.3-47.5,18.3c-18.3,0-35.8-6.5-47.6-18.3
		c-11.4-11.8-17.6-27.7-17.3-44.2c0-16.9,5.9-32.9,17.3-44.2C306.2,28.5,323.8,22,342,22s35.7,6.5,47.5,18.2
		c11.4,11.3,17.4,27.1,17.4,44.2C406.9,102.1,401.5,116.5,389.6,128.4z"/>
</g>
</svg>
