<?xml version="1.0" encoding="utf-8"?>
<!-- Generator: Adobe Illustrator 27.2.0, SVG Export Plug-In . SVG Version: 6.00 Build 0)  -->
<svg version="1.1" id="Layer_1" xmlns="http://www.w3.org/2000/svg" xmlns:xlink="http://www.w3.org/1999/xlink" x="0px" y="0px"
	 viewBox="0 0 55.9 98.8" style="enable-background:new 0 0 55.9 98.8;" xml:space="preserve">
<style type="text/css">
	.st0{fill:#FF0000;}
</style>
<path class="st0" d="M55.9,22.3H41.2V37h2.9c0.1,1.4,0.3,6.1-2.6,9.1c-1.9,2-4.9,3-9,3V19.4h6.7L28,0L16.8,19.4h6.7v43.2
	c-3.5-0.2-6.2-1.2-8-3.1c-3.4-3.5-3-9.1-2.9-10.4c2.5-1.4,4.2-4.2,4.2-7.3c0-4.6-3.8-8.4-8.4-8.4c-4.6,0-8.4,3.8-8.4,8.4
	c0,2.8,1.4,5.4,3.6,6.9c-0.2,2.9-0.2,11.1,5.3,16.9c3.5,3.7,8.4,5.7,14.6,6v11.8c-2.3,1.5-3.9,4.1-3.9,7.1c0,4.6,3.8,8.4,8.4,8.4
	c4.6,0,8.4-3.8,8.4-8.4c0-3-1.6-5.6-3.9-7.1V58.1c6.7-0.1,11.9-1.9,15.5-5.8c4.9-5.1,5.3-12.1,5.2-15.3h2.7V22.3z"/>
</svg>
