<?xml version="1.0" encoding="UTF-8" standalone="no"?>
<!-- Created with Inkscape (http://www.inkscape.org/) -->

<svg
   xmlns:dc="http://purl.org/dc/elements/1.1/"
   xmlns:cc="http://creativecommons.org/ns#"
   xmlns:rdf="http://www.w3.org/1999/02/22-rdf-syntax-ns#"
   xmlns:svg="http://www.w3.org/2000/svg"
   xmlns="http://www.w3.org/2000/svg"
   version="1.1"
   width="554.85144"
   height="77.419258"
   id="svg2">
  <defs
     id="defs4" />
  <metadata
     id="metadata7">
    <rdf:RDF>
      <cc:Work
         rdf:about="">
        <dc:format>image/svg+xml</dc:format>
        <dc:type
           rdf:resource="http://purl.org/dc/dcmitype/StillImage" />
        <dc:title></dc:title>
      </cc:Work>
    </rdf:RDF>
  </metadata>
  <g
     transform="translate(-62.24188,-183.43463)"
     id="layer1">
    <g
       transform="translate(-374.95855,-576.85714)"
       id="text2996"
       style="font-size:70.38578033px;font-style:normal;font-variant:normal;font-weight:900;font-stretch:normal;line-height:125%;letter-spacing:0px;word-spacing:0px;fill:#006cfb;fill-opacity:1;stroke:none;font-family:Helvetica Neue;-inkscape-font-specification:Helvetica Neue Heavy">
      <path
         d="m 440.20043,833.51459 22.3822,0 c 4.36328,0 8.16381,-0.58641 11.4016,-1.75922 3.23771,-1.1728 5.91269,-2.85039 8.02494,-5.03277 2.11216,-2.18236 3.68413,-4.83371 4.71594,-7.95406 1.03171,-3.12031 1.54759,-6.60437 1.54764,-10.45218 -5e-5,-3.14322 -0.39887,-6.22811 -1.19644,-9.25468 -0.79768,-3.0265 -2.08791,-5.70147 -3.8707,-8.02494 -1.78289,-2.32338 -4.11741,-4.20037 -7.00357,-5.63099 -2.88624,-1.43052 -6.41719,-2.1458 -10.59288,-2.14585 l -25.40873,0 z m 15.48496,-37.37526 4.92537,0 c 2.81672,3e-5 5.03453,0.46937 6.65344,1.40801 1.61885,0.93871 2.83855,2.06498 3.65912,3.37881 0.8205,1.31389 1.33638,2.63957 1.54764,3.97703 0.21118,1.33752 0.31679,2.40507 0.31683,3.20267 -4e-5,1.17284 -0.12892,2.4867 -0.38664,3.94159 -0.2578,1.45493 -0.77368,2.81569 -1.54764,4.08228 -0.77403,1.26662 -1.88848,2.33382 -3.34336,3.2016 -1.45495,0.86781 -3.37884,1.3017 -5.77169,1.30169 l -6.05307,0 z"
         id="path3001"
         style="fill:#006cfb;fill-opacity:1" />
      <path
         d="m 539.59436,783.2599 -15.48496,0 0,27.37845 c -4e-5,1.26734 -0.0351,2.58156 -0.10525,3.94266 -0.0702,1.36114 -0.33978,2.60483 -0.80873,3.73108 -0.46901,1.12629 -1.19611,2.05279 -2.1813,2.77952 -0.98524,0.72675 -2.3929,1.09012 -4.22297,1.09011 -1.87738,10e-6 -3.33229,-0.36336 -4.36474,-1.09011 -1.0325,-0.72673 -1.78323,-1.65323 -2.25219,-2.77952 -0.469,-1.12625 -0.73893,-2.36994 -0.80979,-3.73108 -0.0709,-1.3611 -0.10635,-2.67532 -0.10633,-3.94266 l 0,-27.37845 -15.48496,0 0,30.82814 c 0,6.99105 1.88881,12.17597 5.66644,15.55477 3.77761,3.37881 9.53783,5.06821 17.28069,5.06822 7.7428,-1e-5 13.49085,-1.68941 17.24417,-5.06822 3.75323,-3.3788 5.62987,-8.56372 5.62992,-15.55477 z"
         id="path3003"
         style="fill:#006cfb;fill-opacity:1" />
      <path
         d="m 563.21588,815.56587 4.85664,-15.48496 0.14177,0 4.50436,15.48496 z m -21.18576,17.94872 15.55585,0 2.2511,-7.17863 15.97685,0 2.11364,7.17863 16.04773,0 -18.30099,-50.25469 -15.13268,0 z"
         id="path3005"
         style="fill:#006cfb;fill-opacity:1" />
      <path
         d="m 597.82723,833.51459 37.72538,0 0,-12.88158 -22.24043,0 0,-37.37311 -15.48495,0 z"
         id="path3007"
         style="fill:#006cfb;fill-opacity:1" />
      <path
         d="m 638.34818,816.62269 c 0,2.67356 0.42244,4.97228 1.26732,6.89616 0.84488,1.92391 1.92425,3.56641 3.23811,4.92752 1.31386,1.36112 2.79204,2.4405 4.43456,3.23812 1.64249,0.79762 3.28464,1.43093 4.92644,1.89991 1.64178,0.46898 3.19013,0.77399 4.64506,0.91505 1.45489,0.14105 2.65133,0.21157 3.58931,0.21158 2.8153,-1e-5 5.60734,-0.29321 8.37614,-0.87961 2.76875,-0.58641 5.25577,-1.54835 7.46109,-2.88584 2.20525,-1.33749 3.98845,-3.10888 5.34961,-5.31417 1.36107,-2.20527 2.04163,-4.95041 2.04167,-8.23544 -4e-5,-2.29978 -0.39885,-4.25876 -1.19643,-5.87694 -0.79767,-1.61814 -1.86523,-2.9789 -3.20268,-4.08228 -1.33753,-1.10333 -2.85079,-2.00692 -4.5398,-2.71078 -1.68908,-0.7038 -3.42574,-1.31347 -5.20998,-1.82903 -1.78288,-0.46966 -3.53063,-0.90392 -5.24328,-1.30276 -1.7127,-0.39878 -3.24924,-0.82086 -4.60962,-1.26625 -1.36042,-0.44532 -2.47487,-0.96155 -3.34336,-1.54871 -0.86853,-0.58708 -1.32641,-1.326 -1.37365,-2.21674 -2e-5,-0.70451 0.18793,-1.27945 0.56385,-1.72484 0.37588,-0.44532 0.84522,-0.78542 1.40801,-1.02031 0.56276,-0.2348 1.17279,-0.39913 1.8301,-0.49296 0.65727,-0.0938 1.24368,-0.14066 1.75922,-0.1407 0.7976,4e-5 1.59522,0.0938 2.39287,0.28139 0.7976,0.18763 1.52506,0.51628 2.18238,0.98593 0.65726,0.42248 1.16168,0.96199 1.51326,1.61853 0.35153,0.65661 0.45714,1.45459 0.31684,2.39395 l 14.64079,0 c -0.0946,-3.05013 -0.72822,-5.6195 -1.90099,-7.70812 -1.17285,-2.08853 -2.7212,-3.77793 -4.64505,-5.06821 -1.92393,-1.29018 -4.12957,-2.21669 -6.61693,-2.77952 -2.48741,-0.56272 -5.09151,-0.84411 -7.81229,-0.84416 -2.58049,5e-5 -5.09078,0.31652 -7.5309,0.94942 -2.44014,0.63299 -4.59888,1.63002 -6.47623,2.99109 -1.87736,1.36117 -3.39063,3.08565 -4.5398,5.17347 -1.14919,2.0879 -1.72378,4.58674 -1.72378,7.49653 0,2.53324 0.51624,4.60929 1.54871,6.22814 1.03247,1.6189 2.35815,2.95639 3.97703,4.01247 1.61887,1.05612 3.44861,1.901 5.48923,2.53464 2.04058,0.63368 4.04682,1.2319 6.0187,1.79466 2.15801,0.61005 3.94085,1.13774 5.34853,1.58308 1.40763,0.44537 2.51027,0.86745 3.30793,1.26624 0.79759,0.39883 1.36073,0.82127 1.6894,1.26733 0.32861,0.44608 0.49294,0.99776 0.49297,1.65503 -3e-5,0.93798 -0.21125,1.70016 -0.63366,2.28655 -0.42247,0.58642 -0.96198,1.05576 -1.61852,1.40802 -0.65661,0.35228 -1.36043,0.58713 -2.11149,0.70454 -0.75111,0.11744 -1.43167,0.17615 -2.04168,0.17614 -1.45494,10e-6 -2.90949,-0.23484 -4.36367,-0.70454 -1.45422,-0.46969 -2.46342,-1.45491 -3.02761,-2.95566 -0.3752,-0.9852 -0.56279,-2.08784 -0.56278,-3.30792 z"
         id="path3009"
         style="fill:#006cfb;fill-opacity:1" />
      <path
         d="m 690.18022,833.51459 15.48496,0 0,-19.91844 14.49902,0 0,19.91844 15.48496,0 0,-50.25469 -15.48496,0 0,17.45467 -14.49902,0 0,-17.45467 -15.48496,0 z"
         id="path3011"
         style="fill:#006cfb;fill-opacity:1" />
      <path
         d="m 742.53623,808.38724 c 0,3.84781 0.61003,7.37877 1.8301,10.59288 1.22006,3.21414 2.94455,5.98256 5.17347,8.30526 2.2289,2.32271 4.91497,4.14099 8.05823,5.45485 3.14323,1.31386 6.61583,1.97079 10.41782,1.9708 3.8005,-1e-5 7.27275,-0.65694 10.41674,-1.9708 3.14392,-1.31386 5.83036,-3.13214 8.05931,-5.45485 2.22886,-2.3227 3.95335,-5.09112 5.17347,-8.30526 1.22001,-3.21411 1.83004,-6.74507 1.8301,-10.59288 -6e-5,-3.84776 -0.61009,-7.37872 -1.8301,-10.59288 -1.22012,-3.21409 -2.94461,-5.9825 -5.17347,-8.30525 -2.22895,-2.32266 -4.91539,-4.14095 -8.05931,-5.45486 -3.14399,-1.31381 -6.61624,-1.97074 -10.41674,-1.97079 -3.80199,5e-5 -7.27459,0.65698 -10.41782,1.97079 -3.14326,1.31391 -5.82933,3.1322 -8.05823,5.45486 -2.22892,2.32275 -3.95341,5.09116 -5.17347,8.30525 -1.22007,3.21416 -1.8301,6.74512 -1.8301,10.59288 z m 15.48496,0 c -2e-5,-2.81529 0.34008,-5.11472 1.0203,-6.89831 0.68018,-1.78353 1.51289,-3.17973 2.49813,-4.18861 0.98519,-1.00881 2.06456,-1.71264 3.23811,-2.11149 1.1735,-0.39877 2.25287,-0.59818 3.23812,-0.59821 0.98519,3e-5 2.0642,0.19944 3.23704,0.59821 1.17278,0.39885 2.25179,1.10268 3.23704,2.11149 0.98518,1.00888 1.81825,2.40508 2.4992,4.18861 0.68088,1.78359 1.02134,4.08302 1.02138,6.89831 -4e-5,2.81534 -0.3405,5.11442 -1.02138,6.89724 -0.68095,1.78286 -1.51402,3.1787 -2.4992,4.18753 -0.98525,1.00886 -2.06426,1.71269 -3.23704,2.11149 -1.17284,0.39883 -2.25185,0.59823 -3.23704,0.59822 -0.98525,10e-6 -2.06462,-0.19939 -3.23812,-0.59822 -1.17355,-0.3988 -2.25292,-1.10263 -3.23811,-2.11149 -0.98524,-1.00883 -1.81795,-2.40467 -2.49813,-4.18753 -0.68022,-1.78282 -1.02032,-4.0819 -1.0203,-6.89724 z"
         id="path3013"
         style="fill:#006cfb;fill-opacity:1" />
      <path
         d="m 846.83897,801.9819 c -0.65734,-6.33515 -2.87479,-11.22722 -6.65236,-14.67624 -3.77767,-3.44893 -9.13836,-5.19633 -16.08211,-5.2422 -3.89507,5e-5 -7.40275,0.63335 -10.52307,1.89991 -3.12034,1.26665 -5.79496,3.04949 -8.02386,5.34853 -2.22892,2.29912 -3.9416,5.06753 -5.13803,8.30525 -1.19644,3.23779 -1.79466,6.82782 -1.79466,10.77009 0,3.70605 0.56314,7.16648 1.68941,10.3813 1.12626,3.21486 2.78023,5.99545 4.96189,8.34177 2.18164,2.34634 4.84445,4.19971 7.98842,5.56011 3.14394,1.3604 6.75724,2.0406 10.8399,2.04061 3.66017,-1e-5 6.92119,-0.61004 9.78308,-1.8301 2.86182,-1.22007 5.26651,-2.82713 7.21407,-4.8212 1.94748,-1.99405 3.42566,-4.23478 4.43456,-6.72217 1.00879,-2.48738 1.51322,-4.99768 1.51327,-7.53091 l -15.20357,0 c -0.23489,1.17283 -0.55172,2.27547 -0.95049,3.30793 -0.39885,1.03249 -0.91473,1.92427 -1.54764,2.67534 -0.63298,0.7511 -1.40697,1.3375 -2.32199,1.75921 -0.91508,0.42174 -2.02989,0.6326 -3.34444,0.63259 -1.83013,10e-6 -3.35521,-0.3988 -4.57525,-1.19644 -1.22009,-0.79761 -2.19385,-1.85335 -2.92129,-3.16723 -0.72747,-1.31384 -1.25517,-2.79203 -1.58307,-4.43455 -0.32795,-1.64249 -0.49192,-3.3079 -0.4919,-4.99626 -2e-5,-1.68973 0.16395,-3.35587 0.4919,-4.9984 0.3279,-1.64248 0.8556,-3.12066 1.58307,-4.43456 0.72744,-1.31382 1.7012,-2.36956 2.92129,-3.16723 1.22004,-0.79758 2.74512,-1.1964 4.57525,-1.19643 1.59522,3e-5 2.89726,0.30505 3.90614,0.91504 1.00881,0.61007 1.81825,1.3139 2.42832,2.11149 0.61,0.79766 1.03244,1.6071 1.26732,2.42832 0.23481,0.82129 0.39878,1.46676 0.49189,1.93643 z"
         id="path3015"
         style="fill:#006cfb;fill-opacity:1" />
      <path
         d="m 853.28615,833.51459 15.48496,0 0,-14.8513 4.29386,-4.71701 12.38754,19.56831 19.28692,0 -21.18576,-30.61765 18.23011,-19.63704 -19.07642,0 -13.79448,17.31505 -0.14177,0 0,-17.31505 -15.48496,0 z"
         id="path3017"
         style="fill:#006cfb;fill-opacity:1" />
      <g
         id="text3019"
         style="font-size:98.673172px;line-height:125%;fill:#006cfb;fill-opacity:1;font-family:Helvetica Neue;-inkscape-font-specification:Helvetica Neue Heavy">
        <path
           d="m 950.27277,786.97538 c -0.0663,-1.44737 0.14753,-2.69755 0.6414,-3.75054 0.49383,-1.05289 1.16835,-1.94121 2.02357,-2.66497 0.85518,-0.72365 1.87449,-1.26618 3.05795,-1.62759 1.18339,-0.36129 2.43357,-0.54197 3.75053,-0.54202 0.98565,5e-5 2.02102,0.11498 3.10612,0.34479 1.08502,0.22991 2.05515,0.5752 2.91039,1.03587 0.85516,0.46078 1.5623,1.08561 2.12143,1.87451 0.55905,0.78901 0.8386,1.71045 0.83864,2.76435 -4e-5,1.31496 -0.29565,2.38346 -0.88682,3.20549 -0.59125,0.82212 -1.34758,1.46352 -2.26898,1.9242 -0.92149,0.46076 -1.92474,0.75687 -3.00977,0.88832 -1.08509,0.13154 -2.15359,0.19728 -3.20549,0.19724 -1.31696,4e-5 -2.41958,-0.0491 -3.30787,-0.14755 -0.88836,-0.0983 -1.69387,-0.18064 -2.41655,-0.24693 l 0,13.41821 c 0.72268,-0.13046 1.49557,-0.24489 2.31868,-0.34329 0.82305,-0.0983 1.95829,-0.14752 3.40574,-0.14755 1.11815,3e-5 2.23633,0.0818 3.35455,0.24542 1.11815,0.16364 2.10484,0.50893 2.96008,1.03587 0.85516,0.527 1.54574,1.25071 2.07175,2.17113 0.52592,0.92047 0.78891,2.13752 0.78895,3.65116 -4e-5,2.8286 -0.82212,4.81854 -2.46623,5.96983 -1.64419,1.15133 -3.88055,1.72698 -6.7091,1.72696 -1.71043,2e-5 -3.27277,-0.23034 -4.68703,-0.69108 -1.41432,-0.46071 -2.58219,-1.25016 -3.50361,-2.36836 -1.90917,-1.77663 -2.79749,-4.50684 -2.66497,-8.19065 l -18.74815,0 c -0.0662,0.85523 -0.0828,2.1054 -0.0497,3.75053 0.0331,1.64518 0.32923,3.47051 0.88832,5.47599 0.55909,2.00552 1.44741,4.04465 2.66497,6.11739 1.21755,2.07276 2.96107,3.96434 5.23057,5.67473 2.26948,1.7104 5.18037,3.10813 8.73267,4.19319 3.55227,1.08506 7.893,1.62759 13.02222,1.62759 5.59289,0 10.2473,-0.73977 13.96325,-2.2193 3.71585,-1.47954 6.67592,-3.30486 8.88022,-5.47599 2.20419,-2.17112 3.75047,-4.50635 4.63886,-7.00571 0.88826,-2.49934 1.33242,-4.80195 1.33248,-6.90785 -6e-5,-2.56557 -0.27961,-4.72013 -0.83864,-6.46368 -0.55915,-1.74349 -1.25024,-3.19091 -2.07325,-4.34225 -0.82314,-1.15127 -1.72803,-2.03909 -2.71466,-2.66346 -0.98675,-0.6243 -1.89113,-1.11765 -2.71315,-1.48004 -0.82213,-0.36232 -1.51271,-0.60924 -2.07175,-0.74077 -0.55915,-0.13146 -0.83869,-0.26245 -0.83864,-0.39297 l 0,-0.19874 c -5e-5,-0.0662 0.47673,-0.19771 1.43035,-0.39448 0.95352,-0.1967 1.98989,-0.75579 3.10913,-1.67728 1.11913,-0.9214 2.15551,-2.35225 3.10914,-4.29256 0.9535,-1.94021 1.43029,-4.7191 1.43035,-8.33669 -6e-5,-1.44736 -0.44422,-3.19088 -1.33249,-5.23057 -0.88838,-2.03957 -2.36842,-3.98033 -4.44011,-5.82228 -2.0718,-1.84183 -4.80151,-3.40417 -8.18914,-4.68703 -3.38772,-1.28274 -7.5819,-1.92413 -12.58257,-1.9242 -3.88055,7e-5 -7.53121,0.47735 -10.95198,1.43185 -3.42082,0.95464 -6.44714,2.38549 -9.07897,4.29256 -2.62985,1.97345 -4.7016,4.44017 -6.21525,7.40019 -1.51367,2.96013 -2.30362,6.47979 -2.36987,10.55901 z"
           id="path3024"
           style="fill:#006cfb;fill-opacity:1" />
      </g>
    </g>
    <g
       transform="scale(0.98797428,1.0121721)"
       id="text3801"
       style="font-size:12.31645012px;font-style:normal;font-variant:normal;font-weight:900;font-stretch:normal;line-height:125%;letter-spacing:0px;word-spacing:0px;fill:#006cfb;fill-opacity:1;stroke:none;font-family:Helvetica Neue;-inkscape-font-specification:Helvetica Neue Heavy">
      <path
         d="m 543.01391,249.2562 0,-8.84043 0,0 0.92013,0 0,0 3.53617,0 c 0.84193,1e-5 1.5205,0.22553 2.0357,0.67657 0.51518,0.45105 0.77277,1.04542 0.77278,1.78312 -10e-6,0.84996 -0.28667,1.4714 -0.85998,1.8643 -0.15236,0.10425 -0.32476,0.19245 -0.5172,0.26461 l 0,0 c 0.10824,0.0441 0.20647,0.0922 0.29468,0.14434 0.50516,0.3007 0.76777,0.80586 0.78782,1.5155 l 0.0421,1.44935 c 0.008,0.28866 0.0381,0.49314 0.0902,0.61341 0.0521,0.12028 0.15234,0.2165 0.30069,0.28867 l 0,0.23454 -2.03871,0 c -0.0481,-0.0922 -0.0902,-0.28967 -0.12629,-0.59237 -0.0361,-0.3027 -0.0561,-0.62845 -0.0601,-0.97725 l -0.012,-0.81789 c -0.008,-0.39692 -0.12529,-0.67957 -0.35181,-0.84796 -0.22653,-0.16839 -0.60239,-0.25258 -1.1276,-0.25259 l -1.84025,0 0,0 0,3.49408 0,0 -0.92013,0 -0.92614,0 z m 1.84627,-4.97951 0,0 2.14094,0 c 0.4771,1e-5 0.83492,-0.0972 1.07348,-0.29167 0.23855,-0.19444 0.35782,-0.48812 0.35783,-0.88104 -10e-6,-0.38889 -0.11327,-0.68056 -0.33979,-0.87502 -0.22653,-0.19444 -0.56631,-0.29166 -1.01935,-0.29167 l -2.21311,0 0,0 z"
         id="path2999"
         style="font-weight:bold;fill:#006cfb;font-family:Helvetica;-inkscape-font-specification:Helvetica Bold" />
    </g>
    <path
       d="m 862.16521,696.91473 c 0,4.11446 -3.33543,7.44988 -7.44988,7.44988 -4.11445,0 -7.44987,-3.33542 -7.44987,-7.44988 0,-4.11445 3.33542,-7.44987 7.44987,-7.44987 4.11445,0 7.44988,3.33542 7.44988,7.44987 z"
       transform="matrix(1.0476495,0,0,1.0476495,-355.45493,-482.15418)"
       id="path3805"
       style="fill:none;stroke:#006cfb;stroke-width:1.43177652;stroke-miterlimit:4;stroke-opacity:1" />
  </g>
</svg>
