<?xml version="1.0" encoding="utf-8"?>
<!-- Generator: Adobe Illustrator 27.2.0, SVG Export Plug-In . SVG Version: 6.00 Build 0)  -->
<svg version="1.1"
	 id="svg2" xmlns:svg="http://www.w3.org/2000/svg" xmlns:rdf="http://www.w3.org/1999/02/22-rdf-syntax-ns#" xmlns:cc="http://creativecommons.org/ns#" xmlns:dc="http://purl.org/dc/elements/1.1/"
	 xmlns="http://www.w3.org/2000/svg" xmlns:xlink="http://www.w3.org/1999/xlink" x="0px" y="0px" viewBox="0 0 554.9 77.4"
	 style="enable-background:new 0 0 554.9 77.4;" xml:space="preserve">
<style type="text/css">
	.st0{fill:#006CFB;}
</style>
<path id="path3001" class="st0" d="M3,73.2h22.4c4.4,0,8.2-0.6,11.4-1.8c3.2-1.2,5.9-2.9,8-5c2.1-2.2,3.7-4.8,4.7-8
	c1-3.1,1.5-6.6,1.5-10.5c0-3.1-0.4-6.2-1.2-9.3c-0.8-3-2.1-5.7-3.9-8c-1.8-2.3-4.1-4.2-7-5.6c-2.9-1.4-6.4-2.1-10.6-2.1H3L3,73.2z
	 M18.5,35.8h4.9c2.8,0,5,0.5,6.7,1.4c1.6,0.9,2.8,2.1,3.7,3.4c0.8,1.3,1.3,2.6,1.5,4c0.2,1.3,0.3,2.4,0.3,3.2c0,1.2-0.1,2.5-0.4,3.9
	c-0.3,1.5-0.8,2.8-1.5,4.1c-0.8,1.3-1.9,2.3-3.3,3.2c-1.5,0.9-3.4,1.3-5.8,1.3h-6.1L18.5,35.8z"/>
<path id="path3003" class="st0" d="M102.4,23H86.9v27.4c0,1.3,0,2.6-0.1,3.9c-0.1,1.4-0.3,2.6-0.8,3.7c-0.5,1.1-1.2,2.1-2.2,2.8
	c-1,0.7-2.4,1.1-4.2,1.1c-1.9,0-3.3-0.4-4.4-1.1c-1-0.7-1.8-1.7-2.3-2.8c-0.5-1.1-0.7-2.4-0.8-3.7c-0.1-1.4-0.1-2.7-0.1-3.9V23H56.6
	v30.8c0,7,1.9,12.2,5.7,15.6c3.8,3.4,9.5,5.1,17.3,5.1c7.7,0,13.5-1.7,17.2-5.1c3.8-3.4,5.6-8.6,5.6-15.6L102.4,23z"/>
<path id="path3005" class="st0" d="M126,55.3l4.9-15.5h0.1l4.5,15.5H126z M104.8,73.2h15.6l2.3-7.2h16l2.1,7.2h16L138.5,23h-15.1
	L104.8,73.2z"/>
<path id="path3007" class="st0" d="M160.6,73.2h37.7V60.3h-22.2V23h-15.5L160.6,73.2z"/>
<path id="path3009" class="st0" d="M201.1,56.3c0,2.7,0.4,5,1.3,6.9s1.9,3.6,3.2,4.9c1.3,1.4,2.8,2.4,4.4,3.2s3.3,1.4,4.9,1.9
	s3.2,0.8,4.6,0.9c1.5,0.1,2.7,0.2,3.6,0.2c2.8,0,5.6-0.3,8.4-0.9c2.8-0.6,5.3-1.5,7.5-2.9c2.2-1.3,4-3.1,5.3-5.3c1.4-2.2,2-5,2-8.2
	c0-2.3-0.4-4.3-1.2-5.9c-0.8-1.6-1.9-3-3.2-4.1c-1.3-1.1-2.9-2-4.5-2.7c-1.7-0.7-3.4-1.3-5.2-1.8c-1.8-0.5-3.5-0.9-5.2-1.3
	c-1.7-0.4-3.2-0.8-4.6-1.3c-1.4-0.4-2.5-1-3.3-1.5c-0.9-0.6-1.3-1.3-1.4-2.2c0-0.7,0.2-1.3,0.6-1.7c0.4-0.4,0.8-0.8,1.4-1
	c0.6-0.2,1.2-0.4,1.8-0.5c0.7-0.1,1.2-0.1,1.8-0.1c0.8,0,1.6,0.1,2.4,0.3c0.8,0.2,1.5,0.5,2.2,1c0.7,0.4,1.2,1,1.5,1.6
	c0.4,0.7,0.5,1.5,0.3,2.4h14.6c-0.1-3.1-0.7-5.6-1.9-7.7c-1.2-2.1-2.7-3.8-4.6-5.1c-1.9-1.3-4.1-2.2-6.6-2.8
	c-2.5-0.6-5.1-0.8-7.8-0.8c-2.6,0-5.1,0.3-7.5,0.9c-2.4,0.6-4.6,1.6-6.5,3c-1.9,1.4-3.4,3.1-4.5,5.2c-1.1,2.1-1.7,4.6-1.7,7.5
	c0,2.5,0.5,4.6,1.5,6.2c1,1.6,2.4,3,4,4s3.4,1.9,5.5,2.5c2,0.6,4,1.2,6,1.8c2.2,0.6,3.9,1.1,5.3,1.6c1.4,0.4,2.5,0.9,3.3,1.3
	c0.8,0.4,1.4,0.8,1.7,1.3c0.3,0.4,0.5,1,0.5,1.7c0,0.9-0.2,1.7-0.6,2.3c-0.4,0.6-1,1.1-1.6,1.4c-0.7,0.4-1.4,0.6-2.1,0.7
	c-0.8,0.1-1.4,0.2-2,0.2c-1.5,0-2.9-0.2-4.4-0.7c-1.5-0.5-2.5-1.5-3-3c-0.4-1-0.6-2.1-0.6-3.3L201.1,56.3z"/>
<path id="path3011" class="st0" d="M253,73.2h15.5V53.3H283v19.9h15.5V23H283v17.5h-14.5V23H253V73.2z"/>
<path id="path3013" class="st0" d="M305.3,48.1c0,3.8,0.6,7.4,1.8,10.6s2.9,6,5.2,8.3s4.9,4.1,8.1,5.5s6.6,2,10.4,2
	c3.8,0,7.3-0.7,10.4-2c3.1-1.3,5.8-3.1,8.1-5.5c2.2-2.3,4-5.1,5.2-8.3c1.2-3.2,1.8-6.7,1.8-10.6c0-3.8-0.6-7.4-1.8-10.6
	c-1.2-3.2-2.9-6-5.2-8.3c-2.2-2.3-4.9-4.1-8.1-5.5c-3.1-1.3-6.6-2-10.4-2c-3.8,0-7.3,0.7-10.4,2c-3.1,1.3-5.8,3.1-8.1,5.5
	c-2.2,2.3-4,5.1-5.2,8.3C305.9,40.7,305.3,44.2,305.3,48.1z M320.8,48.1c0-2.8,0.3-5.1,1-6.9c0.7-1.8,1.5-3.2,2.5-4.2
	c1-1,2.1-1.7,3.2-2.1c1.2-0.4,2.3-0.6,3.2-0.6c1,0,2.1,0.2,3.2,0.6c1.2,0.4,2.3,1.1,3.2,2.1c1,1,1.8,2.4,2.5,4.2
	c0.7,1.8,1,4.1,1,6.9c0,2.8-0.3,5.1-1,6.9c-0.7,1.8-1.5,3.2-2.5,4.2c-1,1-2.1,1.7-3.2,2.1c-1.2,0.4-2.3,0.6-3.2,0.6
	s-2.1-0.2-3.2-0.6c-1.2-0.4-2.3-1.1-3.2-2.1c-1-1-1.8-2.4-2.5-4.2C321.2,53.2,320.8,50.9,320.8,48.1z"/>
<path id="path3015" class="st0" d="M409.6,41.7c-0.7-6.3-2.9-11.2-6.7-14.7c-3.8-3.4-9.1-5.2-16.1-5.2c-3.9,0-7.4,0.6-10.5,1.9
	c-3.1,1.3-5.8,3-8,5.3c-2.2,2.3-3.9,5.1-5.1,8.3c-1.2,3.2-1.8,6.8-1.8,10.8c0,3.7,0.6,7.2,1.7,10.4c1.1,3.2,2.8,6,5,8.3
	c2.2,2.3,4.8,4.2,8,5.6c3.1,1.4,6.8,2,10.8,2c3.7,0,6.9-0.6,9.8-1.8c2.9-1.2,5.3-2.8,7.2-4.8s3.4-4.2,4.4-6.7c1-2.5,1.5-5,1.5-7.5
	h-15.2c-0.2,1.2-0.6,2.3-1,3.3c-0.4,1-0.9,1.9-1.5,2.7c-0.6,0.8-1.4,1.3-2.3,1.8c-0.9,0.4-2,0.6-3.3,0.6c-1.8,0-3.4-0.4-4.6-1.2
	c-1.2-0.8-2.2-1.9-2.9-3.2c-0.7-1.3-1.3-2.8-1.6-4.4c-0.3-1.6-0.5-3.3-0.5-5c0-1.7,0.2-3.4,0.5-5c0.3-1.6,0.9-3.1,1.6-4.4
	c0.7-1.3,1.7-2.4,2.9-3.2c1.2-0.8,2.7-1.2,4.6-1.2c1.6,0,2.9,0.3,3.9,0.9c1,0.6,1.8,1.3,2.4,2.1c0.6,0.8,1,1.6,1.3,2.4
	c0.2,0.8,0.4,1.5,0.5,1.9L409.6,41.7z"/>
<path id="path3017" class="st0" d="M416.1,73.2h15.5V58.4l4.3-4.7l12.4,19.6h19.3l-21.2-30.6L464.6,23h-19.1l-13.8,17.3h-0.1V23
	h-15.5V73.2z"/>
<path id="path3024" class="st0" d="M513.1,26.7c-0.1-1.4,0.1-2.7,0.6-3.8c0.5-1.1,1.2-1.9,2-2.7c0.9-0.7,1.9-1.3,3.1-1.6
	c1.2-0.4,2.4-0.5,3.8-0.5c1,0,2,0.1,3.1,0.3c1.1,0.2,2.1,0.6,2.9,1c0.9,0.5,1.6,1.1,2.1,1.9c0.6,0.8,0.8,1.7,0.8,2.8
	c0,1.3-0.3,2.4-0.9,3.2c-0.6,0.8-1.3,1.5-2.3,1.9c-0.9,0.5-1.9,0.8-3,0.9c-1.1,0.1-2.2,0.2-3.2,0.2c-1.3,0-2.4,0-3.3-0.1
	c-0.9-0.1-1.7-0.2-2.4-0.2v13.4c0.7-0.1,1.5-0.2,2.3-0.3c0.8-0.1,2-0.1,3.4-0.1c1.1,0,2.2,0.1,3.4,0.2c1.1,0.2,2.1,0.5,3,1
	c0.9,0.5,1.5,1.3,2.1,2.2c0.5,0.9,0.8,2.1,0.8,3.7c0,2.8-0.8,4.8-2.5,6c-1.6,1.2-3.9,1.7-6.7,1.7c-1.7,0-3.3-0.2-4.7-0.7
	c-1.4-0.5-2.6-1.3-3.5-2.4c-1.9-1.8-2.8-4.5-2.7-8.2h-18.7c-0.1,0.9-0.1,2.1,0,3.8c0,1.6,0.3,3.5,0.9,5.5s1.4,4,2.7,6.1
	c1.2,2.1,3,4,5.2,5.7c2.3,1.7,5.2,3.1,8.7,4.2c3.6,1.1,7.9,1.6,13,1.6c5.6,0,10.2-0.7,14-2.2c3.7-1.5,6.7-3.3,8.9-5.5
	c2.2-2.2,3.8-4.5,4.6-7c0.9-2.5,1.3-4.8,1.3-6.9c0-2.6-0.3-4.7-0.8-6.5c-0.6-1.7-1.3-3.2-2.1-4.3c-0.8-1.2-1.7-2-2.7-2.7
	c-1-0.6-1.9-1.1-2.7-1.5c-0.8-0.4-1.5-0.6-2.1-0.7c-0.6-0.1-0.8-0.3-0.8-0.4v-0.2c0-0.1,0.5-0.2,1.4-0.4c1-0.2,2-0.8,3.1-1.7
	c1.1-0.9,2.2-2.4,3.1-4.3c1-1.9,1.4-4.7,1.4-8.3c0-1.4-0.4-3.2-1.3-5.2c-0.9-2-2.4-4-4.4-5.8c-2.1-1.8-4.8-3.4-8.2-4.7
	c-3.4-1.3-7.6-1.9-12.6-1.9c-3.9,0-7.5,0.5-11,1.4c-3.4,1-6.4,2.4-9.1,4.3c-2.6,2-4.7,4.4-6.2,7.4c-1.5,3-2.3,6.5-2.4,10.6
	L513.1,26.7z"/>
<path id="path2999" class="st0" d="M474.2,68.9v-8.9l0,0h0.9l0,0h3.5c0.8,0,1.5,0.2,2,0.7s0.8,1.1,0.8,1.8c0,0.9-0.3,1.5-0.8,1.9
	c-0.2,0.1-0.3,0.2-0.5,0.3l0,0c0.1,0,0.2,0.1,0.3,0.1c0.5,0.3,0.8,0.8,0.8,1.5l0,1.5c0,0.3,0,0.5,0.1,0.6c0.1,0.1,0.2,0.2,0.3,0.3
	v0.2h-2c0-0.1-0.1-0.3-0.1-0.6c0-0.3-0.1-0.6-0.1-1l0-0.8c0-0.4-0.1-0.7-0.3-0.9c-0.2-0.2-0.6-0.3-1.1-0.3h-1.8l0,0v3.5l0,0h-0.9
	H474.2L474.2,68.9z M476.1,63.8L476.1,63.8h2.1c0.5,0,0.8-0.1,1.1-0.3c0.2-0.2,0.4-0.5,0.4-0.9c0-0.4-0.1-0.7-0.3-0.9
	c-0.2-0.2-0.6-0.3-1-0.3h-2.2l0,0V63.8z"/>
<path class="st0" d="M477.7,73.1c-4.7,0-8.6-3.8-8.6-8.6c0-4.7,3.8-8.6,8.6-8.6s8.6,3.8,8.6,8.6C486.3,69.3,482.5,73.1,477.7,73.1z
	 M477.7,57.5c-3.9,0-7.1,3.2-7.1,7.1c0,3.9,3.2,7.1,7.1,7.1s7.1-3.2,7.1-7.1C484.8,60.6,481.6,57.5,477.7,57.5z"/>
</svg>
